<?xml version="1.0" encoding="UTF-8"?>
<svg id="Layer_1" xmlns="http://www.w3.org/2000/svg" version="1.1" viewBox="0 0 155.49 63.95">
  <!-- Generator: Adobe Illustrator 29.7.0, SVG Export Plug-In . SVG Version: 2.1.1 Build 138)  -->
  <defs>
    <style>
      .st0 {
        fill: #1d47b8;
      }

      .st1 {
        fill: #f37000;
      }
    </style>
  </defs>
  <path class="st1" d="M39.59,60.43H9.58c-3.38,0-6.45-1.73-8.19-4.62-1.75-2.9-1.85-6.41-.28-9.4l5.37-10.2c2.57-4.89,7.61-7.94,13.14-7.94h33.58v7.36H19.61c-2.79,0-5.32,1.53-6.62,4l-5.37,10.2c-.52.99-.13,1.85.06,2.17.19.32.77,1.07,1.89,1.07h30.01c14.95,0,27.11-12.16,27.11-27.11v-13.95c0-2.56-2.09-4.65-4.65-4.65h-23.68c-2.19,0-4.79.56-6.95,1.5-1.02.44-3.21,2.81-4.64,4.75l-1.71,3.23-6.51-3.44,2.09-3.89c.98-1.36,4.44-5.93,7.83-7.4,3.09-1.34,6.69-2.11,9.88-2.11h23.68c6.63,0,12.01,5.39,12.01,12.01v13.95c0,19.01-15.46,34.47-34.47,34.47Z"/>
  <path class="st1" d="M145.91,60.43h-30.01c-19.01,0-34.47-15.46-34.47-34.47v-13.95c0-6.63,5.39-12.01,12.02-12.01h23.68c3.19,0,6.79.77,9.88,2.11,3.4,1.47,6.85,6.04,7.83,7.4l.26.43,1.83,3.46-6.51,3.44-1.7-3.22c-1.43-1.94-3.63-4.31-4.64-4.75-2.16-.94-4.76-1.5-6.95-1.5h-23.68c-2.56,0-4.65,2.09-4.65,4.65v13.95c0,14.95,12.16,27.11,27.11,27.11h30.01c1.12,0,1.69-.75,1.89-1.07.19-.32.59-1.17.06-2.17l-5.36-10.2c-1.3-2.47-3.84-4-6.62-4h-33.58v-7.36h33.58c5.53,0,10.56,3.04,13.14,7.93l5.36,10.2c1.57,2.99,1.47,6.51-.28,9.4-1.75,2.9-4.81,4.62-8.19,4.62Z"/>
  <polygon class="st0" points="54.76 63.91 77.72 51.24 100.74 63.95 77.75 60.73 54.76 63.91"/>
</svg>