<?xml version="1.0" encoding="UTF-8"?>
<svg id="Layer_1" xmlns="http://www.w3.org/2000/svg" version="1.1" viewBox="0 0 283.46 127.56">
  <!-- Generator: Adobe Illustrator 29.7.0, SVG Export Plug-In . SVG Version: 2.1.1 Build 138)  -->
  <defs>
    <style>
      .st0 {
        fill: #fff;
      }
    </style>
  </defs>
  <g>
    <path class="st0" d="M8.29,99.1l-1.94,6.06H0l10.52-31.6h8.96l10.71,31.6h-6.21l-2.04-6.06h-13.65ZM15.12,78.21l-5.4,16.39h10.85l-5.45-16.39Z"/>
    <path class="st0" d="M43.73,86.45h2.84l10.47-12.89h7.49l-12.79,15.45,14.12,16.16h-7.68l-11.61-13.5h-2.84v13.5h-6.06v-31.6h6.06v12.89Z"/>
    <path class="st0" d="M80.26,99.1l-1.94,6.06h-6.35l10.52-31.6h8.96l10.71,31.6h-6.21l-2.04-6.06h-13.65ZM87.08,78.21l-5.4,16.39h10.85l-5.45-16.39Z"/>
    <path class="st0" d="M127.26,82.81v-.57c0-3.46-.99-4.17-5.88-4.17-5.73,0-6.87.71-6.87,4.31,0,2.27.57,3.32,2.09,3.79.81.24,1.09.24,6.02.52,5.31.33,7.11.66,8.62,1.75,1.94,1.33,2.61,3.17,2.61,7.2s-.57,6.06-1.94,7.44c-1.89,1.85-4.31,2.37-10.9,2.37-5.73,0-7.68-.33-9.76-1.57-1.18-.71-2.18-2.23-2.51-3.88-.29-1.38-.33-2.32-.38-4.83h5.83c0,2.37.14,3.18.66,3.98.76,1.28,1.51,1.42,6.44,1.42,3.55,0,4.55-.14,5.45-.85.81-.57,1.14-1.8,1.14-3.98s-.47-3.08-1.75-3.51q-.76-.29-6.02-.62c-5.4-.33-6.54-.52-8.15-1.28-2.51-1.23-3.51-3.5-3.51-7.86,0-3.74.81-6.06,2.51-7.3,1.94-1.47,4.41-1.89,10.28-1.89s8.48.62,10.04,2.37c1.23,1.37,1.8,3.27,1.8,6.02v1.14h-5.83Z"/>
    <path class="st0" d="M169.57,105.17h-6.06v-13.5h-14.64v13.5h-6.06v-31.6h6.06v12.93h14.64v-12.93h6.06v31.6Z"/>
    <path class="st0" d="M206.38,88.4c.1,1.61.1,2.75.1,5.45,0,5.4-.47,7.34-2.18,9.1-1.89,1.99-4.41,2.51-11.89,2.51-4.31,0-6.25-.24-8.1-.99-4.07-1.71-5.45-4.74-5.45-12.04,0-8.29.1-10.14.71-12.46.85-3.18,2.89-5.21,6.02-6.11,1.47-.43,3.55-.57,7.53-.57,6.49,0,8.1.24,10.23,1.51,2.13,1.28,2.94,3.51,3.03,8.24h-6.11c-.19-4.22-.95-4.69-7.49-4.69-4.55,0-6.16.52-7.01,2.27-.62,1.33-.76,2.8-.76,8.53s.14,7.72.71,8.96c.81,1.75,2.56,2.27,7.49,2.27,3.46,0,5.21-.33,6.02-1.14s1.23-2.51,1.23-5.07c0-.14-.05-.71-.09-1.28h-7.91v-4.5h13.93Z"/>
    <path class="st0" d="M220.88,99.1l-1.94,6.06h-6.35l10.52-31.6h8.96l10.71,31.6h-6.21l-2.04-6.06h-13.65ZM227.7,78.21l-5.4,16.39h10.85l-5.45-16.39Z"/>
    <path class="st0" d="M260.11,105.17h-6.06v-26.3h-9.14v-5.31h24.54v5.31h-9.33v26.3Z"/>
    <path class="st0" d="M283.46,105.17h-6.06v-31.6h6.06v31.6Z"/>
  </g>
  <g>
    <path class="st0" d="M63.8,123.37v3.9h-2.93v-12.2h8.83v2.68h-5.9v3.07h5.37v2.54h-5.37Z"/>
    <path class="st0" d="M77.38,115.07h9.23v2.54h-6.28v2.36h5.77v2.28h-5.77v2.48h6.26v2.54h-9.21v-12.2Z"/>
    <path class="st0" d="M97.54,124.65h5.23v2.62h-8.15v-12.2h2.93v9.58Z"/>
    <path class="st0" d="M113.27,124.65h5.23v2.62h-8.15v-12.2h2.93v9.58Z"/>
    <path class="st0" d="M124.71,121.13c0-3.92,2.36-6.34,6.16-6.34s6.16,2.42,6.16,6.34-2.2,6.43-6.16,6.43-6.16-2.48-6.16-6.43ZM134.13,121.13c0-2.28-.95-3.78-3.25-3.78s-3.23,1.51-3.23,3.78c0,2.4.96,3.9,3.23,3.9s3.25-1.5,3.25-3.9Z"/>
    <path class="st0" d="M150.55,127.27h-4.07l-2.97-12.2h3.15l1.04,5.23c.29,1.54.55,2.97.75,4.47h.45c.2-1.55.43-2.99.71-4.47l1.06-5.23h3.7l1.06,5.23c.26,1.44.47,2.91.67,4.47h.45c.2-1.48.47-2.91.73-4.47l.96-5.23h3.01l-2.91,12.2h-4.27l-.87-5.15c-.23-1.42-.49-3.11-.69-4.66h-.36c-.23,1.55-.51,3.26-.75,4.66l-.83,5.15Z"/>
    <path class="st0" d="M167.67,123.67l2.79-.59c.28,1.46,1.32,2.14,2.83,2.14,1.36,0,2.03-.45,2.03-1.22,0-.86-.55-1.3-2.87-1.69-3.38-.53-4.41-1.85-4.41-3.86,0-2.3,1.61-3.66,4.94-3.66s4.66,1.49,5,3.58l-2.91.57c-.28-1.24-.77-1.87-2.24-1.87-1.3,0-1.91.45-1.91,1.22,0,.71.35,1.22,2.74,1.65,3.78.67,4.6,2.09,4.6,3.86,0,2.34-1.53,3.76-5.11,3.76-3.9-.02-5.23-1.77-5.49-3.89Z"/>
    <path class="st0" d="M194,127.27v-4.76h-5.06v4.76h-2.93v-12.2h2.93v4.82h5.06v-4.82h2.93v12.2h-2.93Z"/>
    <path class="st0" d="M205.14,127.27v-12.2h2.93v12.2h-2.93Z"/>
    <path class="st0" d="M219.2,123.7v3.58h-2.93v-12.2h5.08c3.23,0,4.78,1.48,4.78,4.35,0,2.38-1.67,4.27-4.68,4.27h-2.26ZM219.2,117.55v3.76h1.93c1.51,0,2.11-.61,2.11-1.89s-.57-1.87-2.15-1.87h-1.89Z"/>
  </g>
  <g>
    <path class="st0" d="M104.96,60.43h-30.01c-3.38,0-6.45-1.73-8.19-4.62-1.75-2.9-1.85-6.41-.28-9.4l5.37-10.2c2.57-4.89,7.61-7.94,13.14-7.94h33.58v7.36h-33.58c-2.79,0-5.32,1.53-6.62,4l-5.37,10.2c-.52.99-.13,1.85.06,2.17.19.32.77,1.07,1.89,1.07h30.01c14.95,0,27.11-12.16,27.11-27.11v-13.95c0-2.56-2.09-4.65-4.65-4.65h-23.68c-2.19,0-4.79.56-6.95,1.5-1.02.44-3.21,2.81-4.64,4.75l-1.71,3.23-6.51-3.44,2.09-3.89c.98-1.36,4.44-5.93,7.83-7.4,3.09-1.34,6.69-2.11,9.88-2.11h23.68c6.63,0,12.01,5.39,12.01,12.01v13.95c0,19.01-15.46,34.47-34.47,34.47Z"/>
    <path class="st0" d="M211.27,60.43h-30.01c-19.01,0-34.47-15.46-34.47-34.47v-13.95c0-6.63,5.39-12.01,12.02-12.01h23.68c3.19,0,6.79.77,9.88,2.11,3.4,1.47,6.85,6.04,7.83,7.4l.26.43,1.83,3.46-6.51,3.44-1.7-3.22c-1.43-1.94-3.63-4.31-4.64-4.75-2.16-.94-4.76-1.5-6.95-1.5h-23.68c-2.56,0-4.65,2.09-4.65,4.65v13.95c0,14.95,12.16,27.11,27.11,27.11h30.01c1.12,0,1.69-.75,1.89-1.07.19-.32.59-1.17.06-2.17l-5.36-10.2c-1.3-2.47-3.84-4-6.62-4h-33.58v-7.36h33.58c5.53,0,10.56,3.04,13.14,7.93l5.36,10.2c1.57,2.99,1.47,6.51-.28,9.4-1.75,2.9-4.81,4.62-8.19,4.62Z"/>
    <polygon class="st0" points="120.12 63.91 143.09 51.24 166.1 63.95 143.11 60.73 120.12 63.91"/>
  </g>
</svg>